<svg xmlns="http://www.w3.org/2000/svg" width="1200" height="1860" viewBox="0 0 1200 1860">
<rect x="0.0" y="0.0" width="1200.0" height="1860.0" rx="0" fill="#f1f5f9"/>
<rect x="34.0" y="34.0" width="1132.0" height="1792.0" rx="24" fill="#ffffff" stroke="#cbd5e1"/>
<text x="58.0" y="72.0" font-size="38" font-weight="800" fill="#1f2937" text-anchor="start" font-family="Arial, Microsoft YaHei, sans-serif">新生儿喂养可视化日报</text>
<text x="58.0" y="112.0" font-size="21" font-weight="400" fill="#64748b" text-anchor="start" font-family="Arial, Microsoft YaHei, sans-serif">2026-06-25</text>
<text x="70.0" y="156.0" font-size="20" font-weight="400" fill="#1f2937" text-anchor="start" font-family="Arial, Microsoft YaHei, sans-serif">- 约13日龄；混合喂养。</text>
<text x="70.0" y="186.0" font-size="20" font-weight="400" fill="#1f2937" text-anchor="start" font-family="Arial, Microsoft YaHei, sans-serif">- 亲喂2次，共75分钟。</text>
<text x="70.0" y="216.0" font-size="20" font-weight="400" fill="#1f2937" text-anchor="start" font-family="Arial, Microsoft YaHei, sans-serif">- 瓶喂375 ml。</text>
<text x="70.0" y="246.0" font-size="20" font-weight="400" fill="#1f2937" text-anchor="start" font-family="Arial, Microsoft YaHei, sans-serif">- 尿约9次；便3次。</text>
<rect x="58.0" y="285.0" width="250.0" height="118.0" rx="14" fill="#ffffff" stroke="#cbd5e1"/>
<rect x="58.0" y="285.0" width="6.0" height="118.0" rx="14" fill="#0f766e"/>
<text x="80.0" y="317.0" font-size="18" font-weight="600" fill="#64748b" text-anchor="start" font-family="Arial, Microsoft YaHei, sans-serif">瓶喂总量</text>
<text x="80.0" y="359.0" font-size="32" font-weight="700" fill="#1f2937" text-anchor="start" font-family="Arial, Microsoft YaHei, sans-serif">375 ml</text>
<text x="80.0" y="391.0" font-size="17" font-weight="400" fill="#64748b" text-anchor="start" font-family="Arial, Microsoft YaHei, sans-serif">母乳 135 / 奶粉 240</text>
<rect x="332.0" y="285.0" width="250.0" height="118.0" rx="14" fill="#ffffff" stroke="#cbd5e1"/>
<rect x="332.0" y="285.0" width="6.0" height="118.0" rx="14" fill="#2563eb"/>
<text x="354.0" y="317.0" font-size="18" font-weight="600" fill="#64748b" text-anchor="start" font-family="Arial, Microsoft YaHei, sans-serif">亲喂</text>
<text x="354.0" y="359.0" font-size="32" font-weight="700" fill="#1f2937" text-anchor="start" font-family="Arial, Microsoft YaHei, sans-serif">2 次</text>
<text x="354.0" y="391.0" font-size="17" font-weight="400" fill="#64748b" text-anchor="start" font-family="Arial, Microsoft YaHei, sans-serif">约 75 分钟</text>
<rect x="606.0" y="285.0" width="250.0" height="118.0" rx="14" fill="#ffffff" stroke="#cbd5e1"/>
<rect x="606.0" y="285.0" width="6.0" height="118.0" rx="14" fill="#7c3aed"/>
<text x="628.0" y="317.0" font-size="18" font-weight="600" fill="#64748b" text-anchor="start" font-family="Arial, Microsoft YaHei, sans-serif">尿便</text>
<text x="628.0" y="359.0" font-size="32" font-weight="700" fill="#1f2937" text-anchor="start" font-family="Arial, Microsoft YaHei, sans-serif">尿 9 / 便 3</text>
<text x="628.0" y="391.0" font-size="17" font-weight="400" fill="#64748b" text-anchor="start" font-family="Arial, Microsoft YaHei, sans-serif">含换尿布口径</text>
<rect x="880.0" y="285.0" width="250.0" height="118.0" rx="14" fill="#ffffff" stroke="#cbd5e1"/>
<rect x="880.0" y="285.0" width="6.0" height="118.0" rx="14" fill="#475569"/>
<text x="902.0" y="317.0" font-size="18" font-weight="600" fill="#64748b" text-anchor="start" font-family="Arial, Microsoft YaHei, sans-serif">睡眠</text>
<text x="902.0" y="359.0" font-size="32" font-weight="700" fill="#1f2937" text-anchor="start" font-family="Arial, Microsoft YaHei, sans-serif">6 次入睡</text>
<text x="902.0" y="391.0" font-size="17" font-weight="400" fill="#64748b" text-anchor="start" font-family="Arial, Microsoft YaHei, sans-serif">缺醒来则只作推测</text>
<text x="58.0" y="450.0" font-size="28" font-weight="700" fill="#1f2937" text-anchor="start" font-family="Arial, Microsoft YaHei, sans-serif">24 小时时间轴</text>
<text x="58.0" y="495.0" font-size="19" font-weight="600" fill="#64748b" text-anchor="start" font-family="Arial, Microsoft YaHei, sans-serif">喂养</text>
<text x="58.0" y="580.0" font-size="19" font-weight="600" fill="#64748b" text-anchor="start" font-family="Arial, Microsoft YaHei, sans-serif">尿便</text>
<text x="58.0" y="665.0" font-size="19" font-weight="600" fill="#64748b" text-anchor="start" font-family="Arial, Microsoft YaHei, sans-serif">睡眠</text>
<line x1="86.0" y1="475.0" x2="86.0" y2="745.0" stroke="#d9e2ec" stroke-width="1"/>
<text x="86.0" y="771.0" font-size="15" font-weight="400" fill="#64748b" text-anchor="middle" font-family="Arial, Microsoft YaHei, sans-serif">00:00</text>
<line x1="216.5" y1="475.0" x2="216.5" y2="745.0" stroke="#d9e2ec" stroke-width="1"/>
<text x="216.5" y="771.0" font-size="15" font-weight="400" fill="#64748b" text-anchor="middle" font-family="Arial, Microsoft YaHei, sans-serif">03:00</text>
<line x1="347.0" y1="475.0" x2="347.0" y2="745.0" stroke="#d9e2ec" stroke-width="1"/>
<text x="347.0" y="771.0" font-size="15" font-weight="400" fill="#64748b" text-anchor="middle" font-family="Arial, Microsoft YaHei, sans-serif">06:00</text>
<line x1="477.5" y1="475.0" x2="477.5" y2="745.0" stroke="#d9e2ec" stroke-width="1"/>
<text x="477.5" y="771.0" font-size="15" font-weight="400" fill="#64748b" text-anchor="middle" font-family="Arial, Microsoft YaHei, sans-serif">09:00</text>
<line x1="608.0" y1="475.0" x2="608.0" y2="745.0" stroke="#d9e2ec" stroke-width="1"/>
<text x="608.0" y="771.0" font-size="15" font-weight="400" fill="#64748b" text-anchor="middle" font-family="Arial, Microsoft YaHei, sans-serif">12:00</text>
<line x1="738.5" y1="475.0" x2="738.5" y2="745.0" stroke="#d9e2ec" stroke-width="1"/>
<text x="738.5" y="771.0" font-size="15" font-weight="400" fill="#64748b" text-anchor="middle" font-family="Arial, Microsoft YaHei, sans-serif">15:00</text>
<line x1="869.0" y1="475.0" x2="869.0" y2="745.0" stroke="#d9e2ec" stroke-width="1"/>
<text x="869.0" y="771.0" font-size="15" font-weight="400" fill="#64748b" text-anchor="middle" font-family="Arial, Microsoft YaHei, sans-serif">18:00</text>
<line x1="999.5" y1="475.0" x2="999.5" y2="745.0" stroke="#d9e2ec" stroke-width="1"/>
<text x="999.5" y="771.0" font-size="15" font-weight="400" fill="#64748b" text-anchor="middle" font-family="Arial, Microsoft YaHei, sans-serif">21:00</text>
<line x1="1130.0" y1="475.0" x2="1130.0" y2="745.0" stroke="#d9e2ec" stroke-width="1"/>
<text x="1130.0" y="771.0" font-size="15" font-weight="400" fill="#64748b" text-anchor="middle" font-family="Arial, Microsoft YaHei, sans-serif">24:00</text>
<line x1="86.0" y1="499.0" x2="1130.0" y2="499.0" stroke="#94a3b8" stroke-width="2"/>
<line x1="86.0" y1="584.0" x2="1130.0" y2="584.0" stroke="#94a3b8" stroke-width="2"/>
<line x1="86.0" y1="669.0" x2="1130.0" y2="669.0" stroke="#94a3b8" stroke-width="2"/>
<rect x="198.4" y="647.0" width="73.2" height="44.0" rx="12" fill="#475569" opacity="0.18"/>
<rect x="198.4" y="647.0" width="73.2" height="8.0" rx="8" fill="#475569" opacity="0.55"/>
<rect x="296.2" y="647.0" width="94.2" height="44.0" rx="12" fill="#475569" opacity="0.18"/>
<rect x="296.2" y="647.0" width="94.2" height="8.0" rx="8" fill="#475569" opacity="0.55"/>
<rect x="448.5" y="647.0" width="246.5" height="44.0" rx="12" fill="#475569" opacity="0.18"/>
<rect x="448.5" y="647.0" width="246.5" height="8.0" rx="8" fill="#475569" opacity="0.55"/>
<rect x="789.2" y="647.0" width="26.1" height="44.0" rx="12" fill="#475569" opacity="0.18"/>
<rect x="789.2" y="647.0" width="26.1" height="8.0" rx="8" fill="#475569" opacity="0.55"/>
<rect x="1023.4" y="647.0" width="26.8" height="44.0" rx="12" fill="#475569" opacity="0.18"/>
<rect x="1023.4" y="647.0" width="26.8" height="8.0" rx="8" fill="#475569" opacity="0.55"/>
<circle cx="86.0" cy="669" r="8" fill="#475569"/>
<circle cx="178.8" cy="499" r="8.5" fill="#0f766e" opacity="0.9"/>
<circle cx="188.9" cy="499" r="7.2" fill="#b45309" opacity="0.9"/>
<circle cx="288.3" cy="499" r="9.8" fill="#b45309" opacity="0.9"/>
<circle cx="423.1" cy="499" r="8.0" fill="#2563eb" opacity="0.9"/>
<circle cx="437.6" cy="499" r="8.8" fill="#0f766e" opacity="0.9"/>
<circle cx="778.4" cy="499" r="9.8" fill="#b45309" opacity="0.9"/>
<circle cx="943.0" cy="499" r="8.0" fill="#2563eb" opacity="0.9"/>
<circle cx="950.2" cy="499" r="7.9" fill="#b45309" opacity="0.9"/>
<circle cx="1013.3" cy="499" r="9.1" fill="#0f766e" opacity="0.9"/>
<circle cx="1125.7" cy="499" r="10.4" fill="#b45309" opacity="0.9"/>
<polygon points="144.0,570 155.0,584 144.0,598 133.0,584" fill="#0284c7" opacity="0.9"/>
<polygon points="271.6,570 282.6,584 271.6,598 260.6,584" fill="#7c3aed" opacity="0.9"/>
<polygon points="390.5,570 401.5,584 390.5,598 379.5,584" fill="#0284c7" opacity="0.9"/>
<polygon points="695.0,570 706.0,584 695.0,598 684.0,584" fill="#0284c7" opacity="0.9"/>
<polygon points="779.8,570 790.8,584 779.8,598 768.8,584" fill="#7c3aed" opacity="0.9"/>
<polygon points="815.4,570 826.4,584 815.4,598 804.4,584" fill="#a16207" opacity="0.9"/>
<polygon points="912.5,570 923.5,584 912.5,598 901.5,584" fill="#0284c7" opacity="0.9"/>
<polygon points="985.0,570 996.0,584 985.0,598 974.0,584" fill="#0284c7" opacity="0.9"/>
<polygon points="1050.2,570 1061.2,584 1050.2,598 1039.2,584" fill="#0284c7" opacity="0.9"/>
<polygon points="1086.5,570 1097.5,584 1086.5,598 1075.5,584" fill="#0284c7" opacity="0.9"/>
<text x="86.0" y="803.0" font-size="16" font-weight="400" fill="#64748b" text-anchor="start" font-family="Arial, Microsoft YaHei, sans-serif">图例：蓝=亲喂，绿=瓶喂母乳，橙=奶粉，紫/蓝/棕=尿便，灰=睡眠推测</text>
<text x="58.0" y="862.0" font-size="28" font-weight="700" fill="#1f2937" text-anchor="start" font-family="Arial, Microsoft YaHei, sans-serif">瓶喂量与参考区间</text>
<text x="58.0" y="895.0" font-size="17" font-weight="400" fill="#64748b" text-anchor="start" font-family="Arial, Microsoft YaHei, sans-serif">约13日龄常见30-60 ml/次</text>
<line x1="86.0" y1="1180.0" x2="1130.0" y2="1180.0" stroke="#94a3b8" stroke-width="2"/>
<line x1="86.0" y1="925.0" x2="86.0" y2="1180.0" stroke="#94a3b8" stroke-width="2"/>
<rect x="86.0" y="988.8" width="1044.0" height="95.6" rx="0" fill="#dbeafe" opacity="0.8"/>
<text x="1126.0" y="980.8" font-size="15" font-weight="500" fill="#1d4ed8" text-anchor="end" font-family="Arial, Microsoft YaHei, sans-serif">常见参考带</text>
<line x1="86.0" y1="1180.0" x2="1130.0" y2="1180.0" stroke="#d9e2ec" stroke-width="1"/>
<text x="74.0" y="1185.0" font-size="14" font-weight="400" fill="#64748b" text-anchor="end" font-family="Arial, Microsoft YaHei, sans-serif">0</text>
<line x1="86.0" y1="1116.2" x2="1130.0" y2="1116.2" stroke="#d9e2ec" stroke-width="1"/>
<text x="74.0" y="1121.2" font-size="14" font-weight="400" fill="#64748b" text-anchor="end" font-family="Arial, Microsoft YaHei, sans-serif">20</text>
<line x1="86.0" y1="1052.5" x2="1130.0" y2="1052.5" stroke="#d9e2ec" stroke-width="1"/>
<text x="74.0" y="1057.5" font-size="14" font-weight="400" fill="#64748b" text-anchor="end" font-family="Arial, Microsoft YaHei, sans-serif">40</text>
<line x1="86.0" y1="988.8" x2="1130.0" y2="988.8" stroke="#d9e2ec" stroke-width="1"/>
<text x="74.0" y="993.8" font-size="14" font-weight="400" fill="#64748b" text-anchor="end" font-family="Arial, Microsoft YaHei, sans-serif">60</text>
<line x1="86.0" y1="925.0" x2="1130.0" y2="925.0" stroke="#d9e2ec" stroke-width="1"/>
<text x="74.0" y="930.0" font-size="14" font-weight="400" fill="#64748b" text-anchor="end" font-family="Arial, Microsoft YaHei, sans-serif">80</text>
<rect x="334.0" y="1052.5" width="58.0" height="127.5" rx="6" fill="#0f766e" opacity="0.88"/>
<text x="363.0" y="1044.5" font-size="14" font-weight="600" fill="#1f2937" text-anchor="middle" font-family="Arial, Microsoft YaHei, sans-serif">40</text>
<text x="363.0" y="1202.0" font-size="13" font-weight="400" fill="#64748b" text-anchor="middle" font-family="Arial, Microsoft YaHei, sans-serif">02:08</text>
<rect x="404.0" y="1116.2" width="58.0" height="63.8" rx="6" fill="#b45309" opacity="0.88"/>
<text x="433.0" y="1108.2" font-size="14" font-weight="600" fill="#1f2937" text-anchor="middle" font-family="Arial, Microsoft YaHei, sans-serif">20</text>
<text x="433.0" y="1202.0" font-size="13" font-weight="400" fill="#64748b" text-anchor="middle" font-family="Arial, Microsoft YaHei, sans-serif">02:22</text>
<rect x="474.0" y="988.8" width="58.0" height="191.2" rx="6" fill="#b45309" opacity="0.88"/>
<text x="503.0" y="980.8" font-size="14" font-weight="600" fill="#1f2937" text-anchor="middle" font-family="Arial, Microsoft YaHei, sans-serif">60</text>
<text x="503.0" y="1202.0" font-size="13" font-weight="400" fill="#64748b" text-anchor="middle" font-family="Arial, Microsoft YaHei, sans-serif">04:39</text>
<rect x="544.0" y="1036.6" width="58.0" height="143.4" rx="6" fill="#0f766e" opacity="0.88"/>
<text x="573.0" y="1028.6" font-size="14" font-weight="600" fill="#1f2937" text-anchor="middle" font-family="Arial, Microsoft YaHei, sans-serif">45</text>
<text x="573.0" y="1202.0" font-size="13" font-weight="400" fill="#64748b" text-anchor="middle" font-family="Arial, Microsoft YaHei, sans-serif">08:05</text>
<rect x="614.0" y="988.8" width="58.0" height="191.2" rx="6" fill="#b45309" opacity="0.88"/>
<text x="643.0" y="980.8" font-size="14" font-weight="600" fill="#1f2937" text-anchor="middle" font-family="Arial, Microsoft YaHei, sans-serif">60</text>
<text x="643.0" y="1202.0" font-size="13" font-weight="400" fill="#64748b" text-anchor="middle" font-family="Arial, Microsoft YaHei, sans-serif">15:55</text>
<rect x="684.0" y="1084.4" width="58.0" height="95.6" rx="6" fill="#b45309" opacity="0.88"/>
<text x="713.0" y="1076.4" font-size="14" font-weight="600" fill="#1f2937" text-anchor="middle" font-family="Arial, Microsoft YaHei, sans-serif">30</text>
<text x="713.0" y="1202.0" font-size="13" font-weight="400" fill="#64748b" text-anchor="middle" font-family="Arial, Microsoft YaHei, sans-serif">19:52</text>
<rect x="754.0" y="1020.6" width="58.0" height="159.4" rx="6" fill="#0f766e" opacity="0.88"/>
<text x="783.0" y="1012.6" font-size="14" font-weight="600" fill="#1f2937" text-anchor="middle" font-family="Arial, Microsoft YaHei, sans-serif">50</text>
<text x="783.0" y="1202.0" font-size="13" font-weight="400" fill="#64748b" text-anchor="middle" font-family="Arial, Microsoft YaHei, sans-serif">21:19</text>
<rect x="824.0" y="956.9" width="58.0" height="223.1" rx="6" fill="#b45309" opacity="0.88"/>
<text x="853.0" y="948.9" font-size="14" font-weight="600" fill="#1f2937" text-anchor="middle" font-family="Arial, Microsoft YaHei, sans-serif">70</text>
<text x="853.0" y="1202.0" font-size="13" font-weight="400" fill="#64748b" text-anchor="middle" font-family="Arial, Microsoft YaHei, sans-serif">23:54</text>
<text x="58.0" y="1277.0" font-size="28" font-weight="700" fill="#1f2937" text-anchor="start" font-family="Arial, Microsoft YaHei, sans-serif">参考区间对比</text>
<text x="58.0" y="1309.0" font-size="17" font-weight="400" fill="#64748b" text-anchor="start" font-family="Arial, Microsoft YaHei, sans-serif">仅作常见参考，需结合日龄、体重、喂养方式、医嘱和宝宝状态。</text>
<rect x="58.0" y="1343.0" width="1130.0" height="42.0" rx="0" fill="#eef2ff" stroke="#cbd5e1"/>
<text x="70.0" y="1370.0" font-size="16" font-weight="700" fill="#1f2937" text-anchor="start" font-family="Arial, Microsoft YaHei, sans-serif">指标</text>
<text x="230.0" y="1370.0" font-size="16" font-weight="700" fill="#1f2937" text-anchor="start" font-family="Arial, Microsoft YaHei, sans-serif">今日记录</text>
<text x="410.0" y="1370.0" font-size="16" font-weight="700" fill="#1f2937" text-anchor="start" font-family="Arial, Microsoft YaHei, sans-serif">常见参考</text>
<text x="720.0" y="1370.0" font-size="16" font-weight="700" fill="#1f2937" text-anchor="start" font-family="Arial, Microsoft YaHei, sans-serif">对比</text>
<text x="860.0" y="1370.0" font-size="16" font-weight="700" fill="#1f2937" text-anchor="start" font-family="Arial, Microsoft YaHei, sans-serif">备注</text>
<rect x="58.0" y="1385.0" width="1130.0" height="58.0" rx="0" fill="#ffffff" stroke="#cbd5e1"/>
<text x="70.0" y="1420.0" font-size="15" font-weight="500" fill="#1f2937" text-anchor="start" font-family="Arial, Microsoft YaHei, sans-serif">喂养频次</text>
<text x="230.0" y="1420.0" font-size="15" font-weight="400" fill="#1f2937" text-anchor="start" font-family="Arial, Microsoft YaHei, sans-serif">10个事件</text>
<text x="410.0" y="1420.0" font-size="15" font-weight="400" fill="#1f2937" text-anchor="start" font-family="Arial, Microsoft YaHei, sans-serif">母乳约10-12次/日</text>
<text x="720.0" y="1420.0" font-size="15" font-weight="500" fill="#92400e" text-anchor="start" font-family="Arial, Microsoft YaHei, sans-serif">结合日龄</text>
<text x="860.0" y="1420.0" font-size="15" font-weight="400" fill="#1f2937" text-anchor="start" font-family="Arial, Microsoft YaHei, sans-serif">混合喂养看体重</text>
<rect x="58.0" y="1443.0" width="1130.0" height="58.0" rx="0" fill="#f8fafc" stroke="#cbd5e1"/>
<text x="70.0" y="1478.0" font-size="15" font-weight="500" fill="#1f2937" text-anchor="start" font-family="Arial, Microsoft YaHei, sans-serif">瓶喂单量</text>
<text x="230.0" y="1478.0" font-size="15" font-weight="400" fill="#1f2937" text-anchor="start" font-family="Arial, Microsoft YaHei, sans-serif">20-70 ml</text>
<text x="410.0" y="1478.0" font-size="15" font-weight="400" fill="#1f2937" text-anchor="start" font-family="Arial, Microsoft YaHei, sans-serif">约30-60 ml/次</text>
<text x="720.0" y="1478.0" font-size="15" font-weight="500" fill="#92400e" text-anchor="start" font-family="Arial, Microsoft YaHei, sans-serif">需观察</text>
<text x="860.0" y="1478.0" font-size="15" font-weight="400" fill="#1f2937" text-anchor="start" font-family="Arial, Microsoft YaHei, sans-serif">70 ml看反应</text>
<rect x="58.0" y="1501.0" width="1130.0" height="58.0" rx="0" fill="#ffffff" stroke="#cbd5e1"/>
<text x="70.0" y="1536.0" font-size="15" font-weight="500" fill="#1f2937" text-anchor="start" font-family="Arial, Microsoft YaHei, sans-serif">湿尿布</text>
<text x="230.0" y="1536.0" font-size="15" font-weight="400" fill="#1f2937" text-anchor="start" font-family="Arial, Microsoft YaHei, sans-serif">约9次</text>
<text x="410.0" y="1536.0" font-size="15" font-weight="400" fill="#1f2937" text-anchor="start" font-family="Arial, Microsoft YaHei, sans-serif">4-5天后5-6次+</text>
<text x="720.0" y="1536.0" font-size="15" font-weight="500" fill="#1f2937" text-anchor="start" font-family="Arial, Microsoft YaHei, sans-serif">接近参考</text>
<text x="860.0" y="1536.0" font-size="15" font-weight="400" fill="#1f2937" text-anchor="start" font-family="Arial, Microsoft YaHei, sans-serif">补尿量尿色</text>
<rect x="58.0" y="1559.0" width="1130.0" height="58.0" rx="0" fill="#f8fafc" stroke="#cbd5e1"/>
<text x="70.0" y="1594.0" font-size="15" font-weight="500" fill="#1f2937" text-anchor="start" font-family="Arial, Microsoft YaHei, sans-serif">大便</text>
<text x="230.0" y="1594.0" font-size="15" font-weight="400" fill="#1f2937" text-anchor="start" font-family="Arial, Microsoft YaHei, sans-serif">3次黄糊有奶瓣</text>
<text x="410.0" y="1594.0" font-size="15" font-weight="400" fill="#1f2937" text-anchor="start" font-family="Arial, Microsoft YaHei, sans-serif">新生儿差异大</text>
<text x="720.0" y="1594.0" font-size="15" font-weight="500" fill="#1f2937" text-anchor="start" font-family="Arial, Microsoft YaHei, sans-serif">接近参考</text>
<text x="860.0" y="1594.0" font-size="15" font-weight="400" fill="#1f2937" text-anchor="start" font-family="Arial, Microsoft YaHei, sans-serif">看奶瓣变化</text>
<rect x="58.0" y="1617.0" width="1130.0" height="58.0" rx="0" fill="#ffffff" stroke="#cbd5e1"/>
<text x="70.0" y="1652.0" font-size="15" font-weight="500" fill="#1f2937" text-anchor="start" font-family="Arial, Microsoft YaHei, sans-serif">睡眠</text>
<text x="230.0" y="1652.0" font-size="15" font-weight="400" fill="#1f2937" text-anchor="start" font-family="Arial, Microsoft YaHei, sans-serif">6次入睡</text>
<text x="410.0" y="1652.0" font-size="15" font-weight="400" fill="#1f2937" text-anchor="start" font-family="Arial, Microsoft YaHei, sans-serif">0-3月14-17小时</text>
<text x="720.0" y="1652.0" font-size="15" font-weight="500" fill="#92400e" text-anchor="start" font-family="Arial, Microsoft YaHei, sans-serif">无法判断</text>
<text x="860.0" y="1652.0" font-size="15" font-weight="400" fill="#1f2937" text-anchor="start" font-family="Arial, Microsoft YaHei, sans-serif">缺醒来时间</text>
<rect x="58.0" y="1675.0" width="1130.0" height="58.0" rx="0" fill="#f8fafc" stroke="#cbd5e1"/>
<text x="70.0" y="1710.0" font-size="15" font-weight="500" fill="#1f2937" text-anchor="start" font-family="Arial, Microsoft YaHei, sans-serif">睡姿</text>
<text x="230.0" y="1710.0" font-size="15" font-weight="400" fill="#1f2937" text-anchor="start" font-family="Arial, Microsoft YaHei, sans-serif">侧卧较多</text>
<text x="410.0" y="1710.0" font-size="15" font-weight="400" fill="#1f2937" text-anchor="start" font-family="Arial, Microsoft YaHei, sans-serif">建议仰卧入睡</text>
<text x="720.0" y="1710.0" font-size="15" font-weight="500" fill="#92400e" text-anchor="start" font-family="Arial, Microsoft YaHei, sans-serif">可优化</text>
<text x="860.0" y="1710.0" font-size="15" font-weight="400" fill="#1f2937" text-anchor="start" font-family="Arial, Microsoft YaHei, sans-serif">睡面坚实平坦</text>
<text x="58.0" y="1810.0" font-size="16" font-weight="400" fill="#64748b" text-anchor="start" font-family="Arial, Microsoft YaHei, sans-serif">说明：图表用于趋势观察，不替代医生诊断；记录缺失会影响对比结论。</text>
</svg>