<svg xmlns="http://www.w3.org/2000/svg" width="1200" height="1860" viewBox="0 0 1200 1860">
<rect x="0.0" y="0.0" width="1200.0" height="1860.0" rx="0" fill="#f1f5f9"/>
<rect x="34.0" y="34.0" width="1132.0" height="1792.0" rx="24" fill="#ffffff" stroke="#cbd5e1"/>
<text x="58.0" y="72.0" font-size="38" font-weight="800" fill="#1f2937" text-anchor="start" font-family="Arial, Microsoft YaHei, sans-serif">新生儿喂养可视化日报</text>
<text x="58.0" y="112.0" font-size="21" font-weight="400" fill="#64748b" text-anchor="start" font-family="Arial, Microsoft YaHei, sans-serif">2026-06-25</text>
<text x="70.0" y="156.0" font-size="20" font-weight="400" fill="#1f2937" text-anchor="start" font-family="Arial, Microsoft YaHei, sans-serif">- 亲喂 4 次共 135 分钟，瓶喂母乳 68 ml，奶粉 233 ml。</text>
<text x="70.0" y="186.0" font-size="20" font-weight="400" fill="#1f2937" text-anchor="start" font-family="Arial, Microsoft YaHei, sans-serif">- 瓶喂总量 301 ml，多次亲喂后短时间内追加瓶喂。</text>
<text x="70.0" y="216.0" font-size="20" font-weight="400" fill="#1f2937" text-anchor="start" font-family="Arial, Microsoft YaHei, sans-serif">- 按换尿不湿默认计小便口径，小便 12 次；明确大便 4 次。</text>
<text x="70.0" y="246.0" font-size="20" font-weight="400" fill="#1f2937" text-anchor="start" font-family="Arial, Microsoft YaHei, sans-serif">- 记录 4 次入睡但缺少醒来时间，无法计算真实睡眠总时长。</text>
<rect x="58.0" y="285.0" width="250.0" height="118.0" rx="14" fill="#ffffff" stroke="#cbd5e1"/>
<rect x="58.0" y="285.0" width="6.0" height="118.0" rx="14" fill="#0f766e"/>
<text x="80.0" y="317.0" font-size="18" font-weight="600" fill="#64748b" text-anchor="start" font-family="Arial, Microsoft YaHei, sans-serif">瓶喂总量</text>
<text x="80.0" y="359.0" font-size="32" font-weight="700" fill="#1f2937" text-anchor="start" font-family="Arial, Microsoft YaHei, sans-serif">301 ml</text>
<text x="80.0" y="391.0" font-size="17" font-weight="400" fill="#64748b" text-anchor="start" font-family="Arial, Microsoft YaHei, sans-serif">母乳 68 / 奶粉 233</text>
<rect x="332.0" y="285.0" width="250.0" height="118.0" rx="14" fill="#ffffff" stroke="#cbd5e1"/>
<rect x="332.0" y="285.0" width="6.0" height="118.0" rx="14" fill="#2563eb"/>
<text x="354.0" y="317.0" font-size="18" font-weight="600" fill="#64748b" text-anchor="start" font-family="Arial, Microsoft YaHei, sans-serif">亲喂</text>
<text x="354.0" y="359.0" font-size="32" font-weight="700" fill="#1f2937" text-anchor="start" font-family="Arial, Microsoft YaHei, sans-serif">4 次</text>
<text x="354.0" y="391.0" font-size="17" font-weight="400" fill="#64748b" text-anchor="start" font-family="Arial, Microsoft YaHei, sans-serif">约 135 分钟</text>
<rect x="606.0" y="285.0" width="250.0" height="118.0" rx="14" fill="#ffffff" stroke="#cbd5e1"/>
<rect x="606.0" y="285.0" width="6.0" height="118.0" rx="14" fill="#7c3aed"/>
<text x="628.0" y="317.0" font-size="18" font-weight="600" fill="#64748b" text-anchor="start" font-family="Arial, Microsoft YaHei, sans-serif">尿便</text>
<text x="628.0" y="359.0" font-size="32" font-weight="700" fill="#1f2937" text-anchor="start" font-family="Arial, Microsoft YaHei, sans-serif">尿 12 / 便 4</text>
<text x="628.0" y="391.0" font-size="17" font-weight="400" fill="#64748b" text-anchor="start" font-family="Arial, Microsoft YaHei, sans-serif">含换尿布口径</text>
<rect x="880.0" y="285.0" width="250.0" height="118.0" rx="14" fill="#ffffff" stroke="#cbd5e1"/>
<rect x="880.0" y="285.0" width="6.0" height="118.0" rx="14" fill="#475569"/>
<text x="902.0" y="317.0" font-size="18" font-weight="600" fill="#64748b" text-anchor="start" font-family="Arial, Microsoft YaHei, sans-serif">睡眠</text>
<text x="902.0" y="359.0" font-size="32" font-weight="700" fill="#1f2937" text-anchor="start" font-family="Arial, Microsoft YaHei, sans-serif">4 次入睡</text>
<text x="902.0" y="391.0" font-size="17" font-weight="400" fill="#64748b" text-anchor="start" font-family="Arial, Microsoft YaHei, sans-serif">缺醒来则只作推测</text>
<text x="58.0" y="450.0" font-size="28" font-weight="700" fill="#1f2937" text-anchor="start" font-family="Arial, Microsoft YaHei, sans-serif">24 小时时间轴</text>
<text x="58.0" y="495.0" font-size="19" font-weight="600" fill="#64748b" text-anchor="start" font-family="Arial, Microsoft YaHei, sans-serif">喂养</text>
<text x="58.0" y="580.0" font-size="19" font-weight="600" fill="#64748b" text-anchor="start" font-family="Arial, Microsoft YaHei, sans-serif">尿便</text>
<text x="58.0" y="665.0" font-size="19" font-weight="600" fill="#64748b" text-anchor="start" font-family="Arial, Microsoft YaHei, sans-serif">睡眠</text>
<line x1="86.0" y1="475.0" x2="86.0" y2="745.0" stroke="#d9e2ec" stroke-width="1"/>
<text x="86.0" y="771.0" font-size="15" font-weight="400" fill="#64748b" text-anchor="middle" font-family="Arial, Microsoft YaHei, sans-serif">00:00</text>
<line x1="216.5" y1="475.0" x2="216.5" y2="745.0" stroke="#d9e2ec" stroke-width="1"/>
<text x="216.5" y="771.0" font-size="15" font-weight="400" fill="#64748b" text-anchor="middle" font-family="Arial, Microsoft YaHei, sans-serif">03:00</text>
<line x1="347.0" y1="475.0" x2="347.0" y2="745.0" stroke="#d9e2ec" stroke-width="1"/>
<text x="347.0" y="771.0" font-size="15" font-weight="400" fill="#64748b" text-anchor="middle" font-family="Arial, Microsoft YaHei, sans-serif">06:00</text>
<line x1="477.5" y1="475.0" x2="477.5" y2="745.0" stroke="#d9e2ec" stroke-width="1"/>
<text x="477.5" y="771.0" font-size="15" font-weight="400" fill="#64748b" text-anchor="middle" font-family="Arial, Microsoft YaHei, sans-serif">09:00</text>
<line x1="608.0" y1="475.0" x2="608.0" y2="745.0" stroke="#d9e2ec" stroke-width="1"/>
<text x="608.0" y="771.0" font-size="15" font-weight="400" fill="#64748b" text-anchor="middle" font-family="Arial, Microsoft YaHei, sans-serif">12:00</text>
<line x1="738.5" y1="475.0" x2="738.5" y2="745.0" stroke="#d9e2ec" stroke-width="1"/>
<text x="738.5" y="771.0" font-size="15" font-weight="400" fill="#64748b" text-anchor="middle" font-family="Arial, Microsoft YaHei, sans-serif">15:00</text>
<line x1="869.0" y1="475.0" x2="869.0" y2="745.0" stroke="#d9e2ec" stroke-width="1"/>
<text x="869.0" y="771.0" font-size="15" font-weight="400" fill="#64748b" text-anchor="middle" font-family="Arial, Microsoft YaHei, sans-serif">18:00</text>
<line x1="999.5" y1="475.0" x2="999.5" y2="745.0" stroke="#d9e2ec" stroke-width="1"/>
<text x="999.5" y="771.0" font-size="15" font-weight="400" fill="#64748b" text-anchor="middle" font-family="Arial, Microsoft YaHei, sans-serif">21:00</text>
<line x1="1130.0" y1="475.0" x2="1130.0" y2="745.0" stroke="#d9e2ec" stroke-width="1"/>
<text x="1130.0" y="771.0" font-size="15" font-weight="400" fill="#64748b" text-anchor="middle" font-family="Arial, Microsoft YaHei, sans-serif">24:00</text>
<line x1="86.0" y1="499.0" x2="1130.0" y2="499.0" stroke="#94a3b8" stroke-width="2"/>
<line x1="86.0" y1="584.0" x2="1130.0" y2="584.0" stroke="#94a3b8" stroke-width="2"/>
<line x1="86.0" y1="669.0" x2="1130.0" y2="669.0" stroke="#94a3b8" stroke-width="2"/>
<rect x="465.2" y="647.0" width="88.4" height="44.0" rx="12" fill="#475569" opacity="0.18"/>
<rect x="465.2" y="647.0" width="88.4" height="8.0" rx="8" fill="#475569" opacity="0.55"/>
<rect x="638.5" y="647.0" width="126.9" height="44.0" rx="12" fill="#475569" opacity="0.18"/>
<rect x="638.5" y="647.0" width="126.9" height="8.0" rx="8" fill="#475569" opacity="0.55"/>
<rect x="787.1" y="647.0" width="79.8" height="44.0" rx="12" fill="#475569" opacity="0.18"/>
<rect x="787.1" y="647.0" width="79.8" height="8.0" rx="8" fill="#475569" opacity="0.55"/>
<circle cx="1093.8" cy="669" r="8" fill="#475569"/>
<circle cx="428.2" cy="499" r="8.0" fill="#2563eb" opacity="0.9"/>
<circle cx="437.6" cy="499" r="7.2" fill="#0f766e" opacity="0.9"/>
<circle cx="557.2" cy="499" r="8.0" fill="#2563eb" opacity="0.9"/>
<circle cx="614.5" cy="499" r="9.6" fill="#b45309" opacity="0.9"/>
<circle cx="765.3" cy="499" r="8.0" fill="#2563eb" opacity="0.9"/>
<circle cx="775.5" cy="499" r="8.5" fill="#b45309" opacity="0.9"/>
<circle cx="883.5" cy="499" r="10.7" fill="#b45309" opacity="0.9"/>
<circle cx="995.9" cy="499" r="8.0" fill="#2563eb" opacity="0.9"/>
<circle cx="1008.2" cy="499" r="9.0" fill="#0f766e" opacity="0.9"/>
<circle cx="1069.1" cy="499" r="9.8" fill="#b45309" opacity="0.9"/>
<polygon points="405.0,570 416.0,584 405.0,598 394.0,584" fill="#0284c7" opacity="0.9"/>
<polygon points="455.8,570 466.8,584 455.8,598 444.8,584" fill="#0284c7" opacity="0.9"/>
<polygon points="553.6,570 564.6,584 553.6,598 542.6,584" fill="#0284c7" opacity="0.9"/>
<polygon points="564.5,570 575.5,584 564.5,598 553.5,584" fill="#0284c7" opacity="0.9"/>
<polygon points="629.8,570 640.8,584 629.8,598 618.8,584" fill="#0284c7" opacity="0.9"/>
<polygon points="767.5,570 778.5,584 767.5,598 756.5,584" fill="#0284c7" opacity="0.9"/>
<polygon points="866.8,570 877.8,584 866.8,598 855.8,584" fill="#a16207" opacity="0.9"/>
<polygon points="872.6,570 883.6,584 872.6,598 861.6,584" fill="#7c3aed" opacity="0.9"/>
<polygon points="940.8,570 951.8,584 940.8,598 929.8,584" fill="#7c3aed" opacity="0.9"/>
<polygon points="999.5,570 1010.5,584 999.5,598 988.5,584" fill="#0284c7" opacity="0.9"/>
<polygon points="1014.0,570 1025.0,584 1014.0,598 1003.0,584" fill="#0284c7" opacity="0.9"/>
<polygon points="1028.5,570 1039.5,584 1028.5,598 1017.5,584" fill="#0284c7" opacity="0.9"/>
<polygon points="1079.2,570 1090.2,584 1079.2,598 1068.2,584" fill="#7c3aed" opacity="0.9"/>
<text x="86.0" y="803.0" font-size="16" font-weight="400" fill="#64748b" text-anchor="start" font-family="Arial, Microsoft YaHei, sans-serif">图例：蓝=亲喂，绿=瓶喂母乳，橙=奶粉，紫/蓝/棕=尿便，灰=睡眠推测</text>
<text x="58.0" y="862.0" font-size="28" font-weight="700" fill="#1f2937" text-anchor="start" font-family="Arial, Microsoft YaHei, sans-serif">瓶喂量与参考区间</text>
<text x="58.0" y="895.0" font-size="17" font-weight="400" fill="#64748b" text-anchor="start" font-family="Arial, Microsoft YaHei, sans-serif">参考区间需结合日龄、体重和医嘱</text>
<line x1="86.0" y1="1180.0" x2="1130.0" y2="1180.0" stroke="#94a3b8" stroke-width="2"/>
<line x1="86.0" y1="925.0" x2="86.0" y2="1180.0" stroke="#94a3b8" stroke-width="2"/>
<line x1="86.0" y1="1180.0" x2="1130.0" y2="1180.0" stroke="#d9e2ec" stroke-width="1"/>
<text x="74.0" y="1185.0" font-size="14" font-weight="400" fill="#64748b" text-anchor="end" font-family="Arial, Microsoft YaHei, sans-serif">0</text>
<line x1="86.0" y1="1116.2" x2="1130.0" y2="1116.2" stroke="#d9e2ec" stroke-width="1"/>
<text x="74.0" y="1121.2" font-size="14" font-weight="400" fill="#64748b" text-anchor="end" font-family="Arial, Microsoft YaHei, sans-serif">20</text>
<line x1="86.0" y1="1052.5" x2="1130.0" y2="1052.5" stroke="#d9e2ec" stroke-width="1"/>
<text x="74.0" y="1057.5" font-size="14" font-weight="400" fill="#64748b" text-anchor="end" font-family="Arial, Microsoft YaHei, sans-serif">40</text>
<line x1="86.0" y1="988.8" x2="1130.0" y2="988.8" stroke="#d9e2ec" stroke-width="1"/>
<text x="74.0" y="993.8" font-size="14" font-weight="400" fill="#64748b" text-anchor="end" font-family="Arial, Microsoft YaHei, sans-serif">60</text>
<line x1="86.0" y1="925.0" x2="1130.0" y2="925.0" stroke="#d9e2ec" stroke-width="1"/>
<text x="74.0" y="930.0" font-size="14" font-weight="400" fill="#64748b" text-anchor="end" font-family="Arial, Microsoft YaHei, sans-serif">80</text>
<rect x="404.0" y="1116.2" width="58.0" height="63.8" rx="6" fill="#0f766e" opacity="0.88"/>
<text x="433.0" y="1108.2" font-size="14" font-weight="600" fill="#1f2937" text-anchor="middle" font-family="Arial, Microsoft YaHei, sans-serif">20</text>
<text x="433.0" y="1202.0" font-size="13" font-weight="400" fill="#64748b" text-anchor="middle" font-family="Arial, Microsoft YaHei, sans-serif">08:05</text>
<rect x="474.0" y="995.1" width="58.0" height="184.9" rx="6" fill="#b45309" opacity="0.88"/>
<text x="503.0" y="987.1" font-size="14" font-weight="600" fill="#1f2937" text-anchor="middle" font-family="Arial, Microsoft YaHei, sans-serif">58</text>
<text x="503.0" y="1202.0" font-size="13" font-weight="400" fill="#64748b" text-anchor="middle" font-family="Arial, Microsoft YaHei, sans-serif">12:09</text>
<rect x="544.0" y="1052.5" width="58.0" height="127.5" rx="6" fill="#b45309" opacity="0.88"/>
<text x="573.0" y="1044.5" font-size="14" font-weight="600" fill="#1f2937" text-anchor="middle" font-family="Arial, Microsoft YaHei, sans-serif">40</text>
<text x="573.0" y="1202.0" font-size="13" font-weight="400" fill="#64748b" text-anchor="middle" font-family="Arial, Microsoft YaHei, sans-serif">15:51</text>
<rect x="614.0" y="940.9" width="58.0" height="239.1" rx="6" fill="#b45309" opacity="0.88"/>
<text x="643.0" y="932.9" font-size="14" font-weight="600" fill="#1f2937" text-anchor="middle" font-family="Arial, Microsoft YaHei, sans-serif">75</text>
<text x="643.0" y="1202.0" font-size="13" font-weight="400" fill="#64748b" text-anchor="middle" font-family="Arial, Microsoft YaHei, sans-serif">18:20</text>
<rect x="684.0" y="1027.0" width="58.0" height="153.0" rx="6" fill="#0f766e" opacity="0.88"/>
<text x="713.0" y="1019.0" font-size="14" font-weight="600" fill="#1f2937" text-anchor="middle" font-family="Arial, Microsoft YaHei, sans-serif">48</text>
<text x="713.0" y="1202.0" font-size="13" font-weight="400" fill="#64748b" text-anchor="middle" font-family="Arial, Microsoft YaHei, sans-serif">21:12</text>
<rect x="754.0" y="988.8" width="58.0" height="191.2" rx="6" fill="#b45309" opacity="0.88"/>
<text x="783.0" y="980.8" font-size="14" font-weight="600" fill="#1f2937" text-anchor="middle" font-family="Arial, Microsoft YaHei, sans-serif">60</text>
<text x="783.0" y="1202.0" font-size="13" font-weight="400" fill="#64748b" text-anchor="middle" font-family="Arial, Microsoft YaHei, sans-serif">22:36</text>
<text x="58.0" y="1277.0" font-size="28" font-weight="700" fill="#1f2937" text-anchor="start" font-family="Arial, Microsoft YaHei, sans-serif">参考区间对比</text>
<text x="58.0" y="1309.0" font-size="17" font-weight="400" fill="#64748b" text-anchor="start" font-family="Arial, Microsoft YaHei, sans-serif">仅作常见参考，需结合日龄、体重、喂养方式、医嘱和宝宝状态。</text>
<rect x="58.0" y="1343.0" width="1130.0" height="42.0" rx="0" fill="#eef2ff" stroke="#cbd5e1"/>
<text x="70.0" y="1370.0" font-size="16" font-weight="700" fill="#1f2937" text-anchor="start" font-family="Arial, Microsoft YaHei, sans-serif">指标</text>
<text x="230.0" y="1370.0" font-size="16" font-weight="700" fill="#1f2937" text-anchor="start" font-family="Arial, Microsoft YaHei, sans-serif">今日记录</text>
<text x="410.0" y="1370.0" font-size="16" font-weight="700" fill="#1f2937" text-anchor="start" font-family="Arial, Microsoft YaHei, sans-serif">常见参考</text>
<text x="720.0" y="1370.0" font-size="16" font-weight="700" fill="#1f2937" text-anchor="start" font-family="Arial, Microsoft YaHei, sans-serif">对比</text>
<text x="860.0" y="1370.0" font-size="16" font-weight="700" fill="#1f2937" text-anchor="start" font-family="Arial, Microsoft YaHei, sans-serif">备注</text>
<rect x="58.0" y="1385.0" width="1130.0" height="58.0" rx="0" fill="#ffffff" stroke="#cbd5e1"/>
<text x="70.0" y="1420.0" font-size="15" font-weight="500" fill="#1f2937" text-anchor="start" font-family="Arial, Microsoft YaHei, sans-serif">喂养频次</text>
<text x="230.0" y="1420.0" font-size="15" font-weight="400" fill="#1f2937" text-anchor="start" font-family="Arial, Microsoft YaHei, sans-serif">亲喂+瓶喂共 10 个事件</text>
<text x="410.0" y="1420.0" font-size="15" font-weight="400" fill="#1f2937" text-anchor="start" font-family="Arial, Microsoft YaHei, sans-serif">母乳喂养新生儿常见约 10-12 次/24 小时；瓶喂新生儿常见每 2-3 小时一次</text>
<text x="720.0" y="1420.0" font-size="15" font-weight="500" fill="#92400e" text-anchor="start" font-family="Arial, Microsoft YaHei, sans-serif">需结合日龄观察</text>
<text x="860.0" y="1420.0" font-size="15" font-weight="400" fill="#1f2937" text-anchor="start" font-family="Arial, Microsoft YaHei, sans-serif">混合喂养且有短间隔补喂，不宜简单按次数判断</text>
<rect x="58.0" y="1443.0" width="1130.0" height="58.0" rx="0" fill="#f8fafc" stroke="#cbd5e1"/>
<text x="70.0" y="1478.0" font-size="15" font-weight="500" fill="#1f2937" text-anchor="start" font-family="Arial, Microsoft YaHei, sans-serif">瓶喂单次量</text>
<text x="230.0" y="1478.0" font-size="15" font-weight="400" fill="#1f2937" text-anchor="start" font-family="Arial, Microsoft YaHei, sans-serif">20-75 ml/次</text>
<text x="410.0" y="1478.0" font-size="15" font-weight="400" fill="#1f2937" text-anchor="start" font-family="Arial, Microsoft YaHei, sans-serif">出生后最初几周常见 30-60 ml/次，满月前后可更高</text>
<text x="720.0" y="1478.0" font-size="15" font-weight="500" fill="#92400e" text-anchor="start" font-family="Arial, Microsoft YaHei, sans-serif">需结合日龄观察</text>
<text x="860.0" y="1478.0" font-size="15" font-weight="400" fill="#1f2937" text-anchor="start" font-family="Arial, Microsoft YaHei, sans-serif">75 ml 这次建议结合体重、日龄和喂后反应观察</text>
<rect x="58.0" y="1501.0" width="1130.0" height="58.0" rx="0" fill="#ffffff" stroke="#cbd5e1"/>
<text x="70.0" y="1536.0" font-size="15" font-weight="500" fill="#1f2937" text-anchor="start" font-family="Arial, Microsoft YaHei, sans-serif">湿尿布</text>
<text x="230.0" y="1536.0" font-size="15" font-weight="400" fill="#1f2937" text-anchor="start" font-family="Arial, Microsoft YaHei, sans-serif">换尿布口径统计 12 次</text>
<text x="410.0" y="1536.0" font-size="15" font-weight="400" fill="#1f2937" text-anchor="start" font-family="Arial, Microsoft YaHei, sans-serif">出生 4-5 天后常见至少 5-6 次/日</text>
<text x="720.0" y="1536.0" font-size="15" font-weight="500" fill="#1f2937" text-anchor="start" font-family="Arial, Microsoft YaHei, sans-serif">接近参考</text>
<text x="860.0" y="1536.0" font-size="15" font-weight="400" fill="#1f2937" text-anchor="start" font-family="Arial, Microsoft YaHei, sans-serif">多条只写换尿不湿，建议补充尿量和尿色</text>
<rect x="58.0" y="1559.0" width="1130.0" height="58.0" rx="0" fill="#f8fafc" stroke="#cbd5e1"/>
<text x="70.0" y="1594.0" font-size="15" font-weight="500" fill="#1f2937" text-anchor="start" font-family="Arial, Microsoft YaHei, sans-serif">大便</text>
<text x="230.0" y="1594.0" font-size="15" font-weight="400" fill="#1f2937" text-anchor="start" font-family="Arial, Microsoft YaHei, sans-serif">4 次黄色糊状</text>
<text x="410.0" y="1594.0" font-size="15" font-weight="400" fill="#1f2937" text-anchor="start" font-family="Arial, Microsoft YaHei, sans-serif">新生儿差异大，约第 4 天起可见多次大便</text>
<text x="720.0" y="1594.0" font-size="15" font-weight="500" fill="#1f2937" text-anchor="start" font-family="Arial, Microsoft YaHei, sans-serif">接近参考</text>
<text x="860.0" y="1594.0" font-size="15" font-weight="400" fill="#1f2937" text-anchor="start" font-family="Arial, Microsoft YaHei, sans-serif">继续结合颜色、性状、精神状态和体重增长观察</text>
<rect x="58.0" y="1617.0" width="1130.0" height="58.0" rx="0" fill="#ffffff" stroke="#cbd5e1"/>
<text x="70.0" y="1652.0" font-size="15" font-weight="500" fill="#1f2937" text-anchor="start" font-family="Arial, Microsoft YaHei, sans-serif">睡眠</text>
<text x="230.0" y="1652.0" font-size="15" font-weight="400" fill="#1f2937" text-anchor="start" font-family="Arial, Microsoft YaHei, sans-serif">4 次入睡，缺醒来时间</text>
<text x="410.0" y="1652.0" font-size="15" font-weight="400" fill="#1f2937" text-anchor="start" font-family="Arial, Microsoft YaHei, sans-serif">0-3 月常见约 14-17 小时/日</text>
<text x="720.0" y="1652.0" font-size="15" font-weight="500" fill="#92400e" text-anchor="start" font-family="Arial, Microsoft YaHei, sans-serif">无法判断</text>
<text x="860.0" y="1652.0" font-size="15" font-weight="400" fill="#1f2937" text-anchor="start" font-family="Arial, Microsoft YaHei, sans-serif">没有醒来时间，无法计算全天总睡眠</text>
<rect x="58.0" y="1675.0" width="1130.0" height="58.0" rx="0" fill="#f8fafc" stroke="#cbd5e1"/>
<text x="70.0" y="1710.0" font-size="15" font-weight="500" fill="#1f2937" text-anchor="start" font-family="Arial, Microsoft YaHei, sans-serif">睡姿安全</text>
<text x="230.0" y="1710.0" font-size="15" font-weight="400" fill="#1f2937" text-anchor="start" font-family="Arial, Microsoft YaHei, sans-serif">2 次侧卧，2 次抱睡描述</text>
<text x="410.0" y="1710.0" font-size="15" font-weight="400" fill="#1f2937" text-anchor="start" font-family="Arial, Microsoft YaHei, sans-serif">建议每次睡眠从仰卧开始，睡眠表面坚实、平坦、水平</text>
<text x="720.0" y="1710.0" font-size="15" font-weight="500" fill="#92400e" text-anchor="start" font-family="Arial, Microsoft YaHei, sans-serif">需结合日龄观察</text>
<text x="860.0" y="1710.0" font-size="15" font-weight="400" fill="#1f2937" text-anchor="start" font-family="Arial, Microsoft YaHei, sans-serif">可温和调整照护习惯</text>
<text x="58.0" y="1810.0" font-size="16" font-weight="400" fill="#64748b" text-anchor="start" font-family="Arial, Microsoft YaHei, sans-serif">说明：图表用于趋势观察，不替代医生诊断；记录缺失会影响对比结论。</text>
</svg>