<svg xmlns="http://www.w3.org/2000/svg" width="1200" height="1860" viewBox="0 0 1200 1860">
<rect x="0.0" y="0.0" width="1200.0" height="1860.0" rx="0" fill="#f1f5f9"/>
<rect x="34.0" y="34.0" width="1132.0" height="1792.0" rx="24" fill="#ffffff" stroke="#cbd5e1"/>
<text x="58.0" y="72.0" font-size="38" font-weight="800" fill="#1f2937" text-anchor="start" font-family="Arial, Microsoft YaHei, sans-serif">新生儿喂养可视化日报</text>
<text x="58.0" y="112.0" font-size="21" font-weight="400" fill="#64748b" text-anchor="start" font-family="Arial, Microsoft YaHei, sans-serif">2026-06-28</text>
<text x="70.0" y="156.0" font-size="20" font-weight="400" fill="#1f2937" text-anchor="start" font-family="Arial, Microsoft YaHei, sans-serif">- 约16日龄；混合喂养。</text>
<text x="70.0" y="186.0" font-size="20" font-weight="400" fill="#1f2937" text-anchor="start" font-family="Arial, Microsoft YaHei, sans-serif">- 亲喂5次，共148分钟。</text>
<text x="70.0" y="216.0" font-size="20" font-weight="400" fill="#1f2937" text-anchor="start" font-family="Arial, Microsoft YaHei, sans-serif">- 瓶喂350 ml，含跨日。</text>
<text x="70.0" y="246.0" font-size="20" font-weight="400" fill="#1f2937" text-anchor="start" font-family="Arial, Microsoft YaHei, sans-serif">- 尿约11次；便2次。</text>
<rect x="58.0" y="285.0" width="250.0" height="118.0" rx="14" fill="#ffffff" stroke="#cbd5e1"/>
<rect x="58.0" y="285.0" width="6.0" height="118.0" rx="14" fill="#0f766e"/>
<text x="80.0" y="317.0" font-size="18" font-weight="600" fill="#64748b" text-anchor="start" font-family="Arial, Microsoft YaHei, sans-serif">瓶喂总量</text>
<text x="80.0" y="359.0" font-size="32" font-weight="700" fill="#1f2937" text-anchor="start" font-family="Arial, Microsoft YaHei, sans-serif">350 ml</text>
<text x="80.0" y="391.0" font-size="17" font-weight="400" fill="#64748b" text-anchor="start" font-family="Arial, Microsoft YaHei, sans-serif">母乳 60 / 奶粉 290</text>
<rect x="332.0" y="285.0" width="250.0" height="118.0" rx="14" fill="#ffffff" stroke="#cbd5e1"/>
<rect x="332.0" y="285.0" width="6.0" height="118.0" rx="14" fill="#2563eb"/>
<text x="354.0" y="317.0" font-size="18" font-weight="600" fill="#64748b" text-anchor="start" font-family="Arial, Microsoft YaHei, sans-serif">亲喂</text>
<text x="354.0" y="359.0" font-size="32" font-weight="700" fill="#1f2937" text-anchor="start" font-family="Arial, Microsoft YaHei, sans-serif">5 次</text>
<text x="354.0" y="391.0" font-size="17" font-weight="400" fill="#64748b" text-anchor="start" font-family="Arial, Microsoft YaHei, sans-serif">约 148 分钟</text>
<rect x="606.0" y="285.0" width="250.0" height="118.0" rx="14" fill="#ffffff" stroke="#cbd5e1"/>
<rect x="606.0" y="285.0" width="6.0" height="118.0" rx="14" fill="#7c3aed"/>
<text x="628.0" y="317.0" font-size="18" font-weight="600" fill="#64748b" text-anchor="start" font-family="Arial, Microsoft YaHei, sans-serif">尿便</text>
<text x="628.0" y="359.0" font-size="32" font-weight="700" fill="#1f2937" text-anchor="start" font-family="Arial, Microsoft YaHei, sans-serif">尿 11 / 便 2</text>
<text x="628.0" y="391.0" font-size="17" font-weight="400" fill="#64748b" text-anchor="start" font-family="Arial, Microsoft YaHei, sans-serif">含换尿布口径</text>
<rect x="880.0" y="285.0" width="250.0" height="118.0" rx="14" fill="#ffffff" stroke="#cbd5e1"/>
<rect x="880.0" y="285.0" width="6.0" height="118.0" rx="14" fill="#475569"/>
<text x="902.0" y="317.0" font-size="18" font-weight="600" fill="#64748b" text-anchor="start" font-family="Arial, Microsoft YaHei, sans-serif">睡眠</text>
<text x="902.0" y="359.0" font-size="32" font-weight="700" fill="#1f2937" text-anchor="start" font-family="Arial, Microsoft YaHei, sans-serif">6 次入睡</text>
<text x="902.0" y="391.0" font-size="17" font-weight="400" fill="#64748b" text-anchor="start" font-family="Arial, Microsoft YaHei, sans-serif">缺醒来则只作推测</text>
<text x="58.0" y="450.0" font-size="28" font-weight="700" fill="#1f2937" text-anchor="start" font-family="Arial, Microsoft YaHei, sans-serif">24 小时时间轴</text>
<text x="58.0" y="495.0" font-size="19" font-weight="600" fill="#64748b" text-anchor="start" font-family="Arial, Microsoft YaHei, sans-serif">喂养</text>
<text x="58.0" y="580.0" font-size="19" font-weight="600" fill="#64748b" text-anchor="start" font-family="Arial, Microsoft YaHei, sans-serif">尿便</text>
<text x="58.0" y="665.0" font-size="19" font-weight="600" fill="#64748b" text-anchor="start" font-family="Arial, Microsoft YaHei, sans-serif">睡眠</text>
<line x1="86.0" y1="475.0" x2="86.0" y2="745.0" stroke="#d9e2ec" stroke-width="1"/>
<text x="86.0" y="771.0" font-size="15" font-weight="400" fill="#64748b" text-anchor="middle" font-family="Arial, Microsoft YaHei, sans-serif">00:00</text>
<line x1="216.5" y1="475.0" x2="216.5" y2="745.0" stroke="#d9e2ec" stroke-width="1"/>
<text x="216.5" y="771.0" font-size="15" font-weight="400" fill="#64748b" text-anchor="middle" font-family="Arial, Microsoft YaHei, sans-serif">03:00</text>
<line x1="347.0" y1="475.0" x2="347.0" y2="745.0" stroke="#d9e2ec" stroke-width="1"/>
<text x="347.0" y="771.0" font-size="15" font-weight="400" fill="#64748b" text-anchor="middle" font-family="Arial, Microsoft YaHei, sans-serif">06:00</text>
<line x1="477.5" y1="475.0" x2="477.5" y2="745.0" stroke="#d9e2ec" stroke-width="1"/>
<text x="477.5" y="771.0" font-size="15" font-weight="400" fill="#64748b" text-anchor="middle" font-family="Arial, Microsoft YaHei, sans-serif">09:00</text>
<line x1="608.0" y1="475.0" x2="608.0" y2="745.0" stroke="#d9e2ec" stroke-width="1"/>
<text x="608.0" y="771.0" font-size="15" font-weight="400" fill="#64748b" text-anchor="middle" font-family="Arial, Microsoft YaHei, sans-serif">12:00</text>
<line x1="738.5" y1="475.0" x2="738.5" y2="745.0" stroke="#d9e2ec" stroke-width="1"/>
<text x="738.5" y="771.0" font-size="15" font-weight="400" fill="#64748b" text-anchor="middle" font-family="Arial, Microsoft YaHei, sans-serif">15:00</text>
<line x1="869.0" y1="475.0" x2="869.0" y2="745.0" stroke="#d9e2ec" stroke-width="1"/>
<text x="869.0" y="771.0" font-size="15" font-weight="400" fill="#64748b" text-anchor="middle" font-family="Arial, Microsoft YaHei, sans-serif">18:00</text>
<line x1="999.5" y1="475.0" x2="999.5" y2="745.0" stroke="#d9e2ec" stroke-width="1"/>
<text x="999.5" y="771.0" font-size="15" font-weight="400" fill="#64748b" text-anchor="middle" font-family="Arial, Microsoft YaHei, sans-serif">21:00</text>
<line x1="1130.0" y1="475.0" x2="1130.0" y2="745.0" stroke="#d9e2ec" stroke-width="1"/>
<text x="1130.0" y="771.0" font-size="15" font-weight="400" fill="#64748b" text-anchor="middle" font-family="Arial, Microsoft YaHei, sans-serif">24:00</text>
<line x1="86.0" y1="499.0" x2="1130.0" y2="499.0" stroke="#94a3b8" stroke-width="2"/>
<line x1="86.0" y1="584.0" x2="1130.0" y2="584.0" stroke="#94a3b8" stroke-width="2"/>
<line x1="86.0" y1="669.0" x2="1130.0" y2="669.0" stroke="#94a3b8" stroke-width="2"/>
<rect x="236.8" y="647.0" width="192.1" height="44.0" rx="12" fill="#475569" opacity="0.18"/>
<rect x="236.8" y="647.0" width="192.1" height="8.0" rx="8" fill="#475569" opacity="0.55"/>
<rect x="477.5" y="647.0" width="79.8" height="44.0" rx="12" fill="#475569" opacity="0.18"/>
<rect x="477.5" y="647.0" width="79.8" height="8.0" rx="8" fill="#475569" opacity="0.55"/>
<rect x="593.5" y="647.0" width="58.0" height="44.0" rx="12" fill="#475569" opacity="0.18"/>
<rect x="593.5" y="647.0" width="58.0" height="8.0" rx="8" fill="#475569" opacity="0.55"/>
<rect x="717.5" y="647.0" width="60.9" height="44.0" rx="12" fill="#475569" opacity="0.18"/>
<rect x="717.5" y="647.0" width="60.9" height="8.0" rx="8" fill="#475569" opacity="0.55"/>
<rect x="1035.8" y="647.0" width="79.8" height="44.0" rx="12" fill="#475569" opacity="0.18"/>
<rect x="1035.8" y="647.0" width="79.8" height="8.0" rx="8" fill="#475569" opacity="0.55"/>
<circle cx="1129.3" cy="669" r="8" fill="#475569"/>
<circle cx="227.4" cy="499" r="10.1" fill="#b45309" opacity="0.9"/>
<circle cx="428.9" cy="499" r="8.0" fill="#2563eb" opacity="0.9"/>
<circle cx="449.9" cy="499" r="8.5" fill="#0f766e" opacity="0.9"/>
<circle cx="576.1" cy="499" r="8.0" fill="#2563eb" opacity="0.9"/>
<circle cx="586.2" cy="499" r="8.8" fill="#b45309" opacity="0.9"/>
<circle cx="696.5" cy="499" r="8.0" fill="#2563eb" opacity="0.9"/>
<circle cx="707.3" cy="499" r="8.5" fill="#b45309" opacity="0.9"/>
<circle cx="848.7" cy="499" r="8.0" fill="#2563eb" opacity="0.9"/>
<circle cx="863.2" cy="499" r="9.4" fill="#b45309" opacity="0.9"/>
<circle cx="999.5" cy="499" r="8.0" fill="#2563eb" opacity="0.9"/>
<circle cx="1006.8" cy="499" r="8.8" fill="#b45309" opacity="0.9"/>
<circle cx="1128.5" cy="499" r="7.2" fill="#0f766e" opacity="0.9"/>
<circle cx="1129.3" cy="499" r="8.5" fill="#b45309" opacity="0.9"/>
<polygon points="202.0,570 213.0,584 202.0,598 191.0,584" fill="#0284c7" opacity="0.9"/>
<polygon points="463.0,570 474.0,584 463.0,598 452.0,584" fill="#0284c7" opacity="0.9"/>
<polygon points="557.2,570 568.2,584 557.2,598 546.2,584" fill="#0284c7" opacity="0.9"/>
<polygon points="651.5,570 662.5,584 651.5,598 640.5,584" fill="#7c3aed" opacity="0.9"/>
<polygon points="687.8,570 698.8,584 687.8,598 676.8,584" fill="#0284c7" opacity="0.9"/>
<polygon points="778.4,570 789.4,584 778.4,598 767.4,584" fill="#0284c7" opacity="0.9"/>
<polygon points="837.8,570 848.8,584 837.8,598 826.8,584" fill="#7c3aed" opacity="0.9"/>
<polygon points="847.2,570 858.2,584 847.2,598 836.2,584" fill="#0284c7" opacity="0.9"/>
<polygon points="905.2,570 916.2,584 905.2,598 894.2,584" fill="#0284c7" opacity="0.9"/>
<polygon points="977.8,570 988.8,584 977.8,598 966.8,584" fill="#0284c7" opacity="0.9"/>
<polygon points="1115.5,570 1126.5,584 1115.5,598 1104.5,584" fill="#0284c7" opacity="0.9"/>
<text x="86.0" y="803.0" font-size="16" font-weight="400" fill="#64748b" text-anchor="start" font-family="Arial, Microsoft YaHei, sans-serif">图例：蓝=亲喂，绿=瓶喂母乳，橙=奶粉，紫/蓝/棕=尿便，灰=睡眠推测</text>
<text x="58.0" y="862.0" font-size="28" font-weight="700" fill="#1f2937" text-anchor="start" font-family="Arial, Microsoft YaHei, sans-serif">瓶喂量与参考区间</text>
<text x="58.0" y="895.0" font-size="17" font-weight="400" fill="#64748b" text-anchor="start" font-family="Arial, Microsoft YaHei, sans-serif">约16日龄常见30-60 ml/次</text>
<line x1="86.0" y1="1180.0" x2="1130.0" y2="1180.0" stroke="#94a3b8" stroke-width="2"/>
<line x1="86.0" y1="925.0" x2="86.0" y2="1180.0" stroke="#94a3b8" stroke-width="2"/>
<rect x="86.0" y="988.8" width="1044.0" height="95.6" rx="0" fill="#dbeafe" opacity="0.8"/>
<text x="1126.0" y="980.8" font-size="15" font-weight="500" fill="#1d4ed8" text-anchor="end" font-family="Arial, Microsoft YaHei, sans-serif">常见参考带</text>
<line x1="86.0" y1="1180.0" x2="1130.0" y2="1180.0" stroke="#d9e2ec" stroke-width="1"/>
<text x="74.0" y="1185.0" font-size="14" font-weight="400" fill="#64748b" text-anchor="end" font-family="Arial, Microsoft YaHei, sans-serif">0</text>
<line x1="86.0" y1="1116.2" x2="1130.0" y2="1116.2" stroke="#d9e2ec" stroke-width="1"/>
<text x="74.0" y="1121.2" font-size="14" font-weight="400" fill="#64748b" text-anchor="end" font-family="Arial, Microsoft YaHei, sans-serif">20</text>
<line x1="86.0" y1="1052.5" x2="1130.0" y2="1052.5" stroke="#d9e2ec" stroke-width="1"/>
<text x="74.0" y="1057.5" font-size="14" font-weight="400" fill="#64748b" text-anchor="end" font-family="Arial, Microsoft YaHei, sans-serif">40</text>
<line x1="86.0" y1="988.8" x2="1130.0" y2="988.8" stroke="#d9e2ec" stroke-width="1"/>
<text x="74.0" y="993.8" font-size="14" font-weight="400" fill="#64748b" text-anchor="end" font-family="Arial, Microsoft YaHei, sans-serif">60</text>
<line x1="86.0" y1="925.0" x2="1130.0" y2="925.0" stroke="#d9e2ec" stroke-width="1"/>
<text x="74.0" y="930.0" font-size="14" font-weight="400" fill="#64748b" text-anchor="end" font-family="Arial, Microsoft YaHei, sans-serif">80</text>
<rect x="334.0" y="972.8" width="58.0" height="207.2" rx="6" fill="#b45309" opacity="0.88"/>
<text x="363.0" y="964.8" font-size="14" font-weight="600" fill="#1f2937" text-anchor="middle" font-family="Arial, Microsoft YaHei, sans-serif">65</text>
<text x="363.0" y="1202.0" font-size="13" font-weight="400" fill="#64748b" text-anchor="middle" font-family="Arial, Microsoft YaHei, sans-serif">03:15</text>
<rect x="404.0" y="1052.5" width="58.0" height="127.5" rx="6" fill="#0f766e" opacity="0.88"/>
<text x="433.0" y="1044.5" font-size="14" font-weight="600" fill="#1f2937" text-anchor="middle" font-family="Arial, Microsoft YaHei, sans-serif">40</text>
<text x="433.0" y="1202.0" font-size="13" font-weight="400" fill="#64748b" text-anchor="middle" font-family="Arial, Microsoft YaHei, sans-serif">08:22</text>
<rect x="474.0" y="1036.6" width="58.0" height="143.4" rx="6" fill="#b45309" opacity="0.88"/>
<text x="503.0" y="1028.6" font-size="14" font-weight="600" fill="#1f2937" text-anchor="middle" font-family="Arial, Microsoft YaHei, sans-serif">45</text>
<text x="503.0" y="1202.0" font-size="13" font-weight="400" fill="#64748b" text-anchor="middle" font-family="Arial, Microsoft YaHei, sans-serif">11:30</text>
<rect x="544.0" y="1052.5" width="58.0" height="127.5" rx="6" fill="#b45309" opacity="0.88"/>
<text x="573.0" y="1044.5" font-size="14" font-weight="600" fill="#1f2937" text-anchor="middle" font-family="Arial, Microsoft YaHei, sans-serif">40</text>
<text x="573.0" y="1202.0" font-size="13" font-weight="400" fill="#64748b" text-anchor="middle" font-family="Arial, Microsoft YaHei, sans-serif">14:17</text>
<rect x="614.0" y="1004.7" width="58.0" height="175.3" rx="6" fill="#b45309" opacity="0.88"/>
<text x="643.0" y="996.7" font-size="14" font-weight="600" fill="#1f2937" text-anchor="middle" font-family="Arial, Microsoft YaHei, sans-serif">55</text>
<text x="643.0" y="1202.0" font-size="13" font-weight="400" fill="#64748b" text-anchor="middle" font-family="Arial, Microsoft YaHei, sans-serif">17:52</text>
<rect x="684.0" y="1036.6" width="58.0" height="143.4" rx="6" fill="#b45309" opacity="0.88"/>
<text x="713.0" y="1028.6" font-size="14" font-weight="600" fill="#1f2937" text-anchor="middle" font-family="Arial, Microsoft YaHei, sans-serif">45</text>
<text x="713.0" y="1202.0" font-size="13" font-weight="400" fill="#64748b" text-anchor="middle" font-family="Arial, Microsoft YaHei, sans-serif">21:10</text>
<rect x="754.0" y="1116.2" width="58.0" height="63.8" rx="6" fill="#0f766e" opacity="0.88"/>
<text x="783.0" y="1108.2" font-size="14" font-weight="600" fill="#1f2937" text-anchor="middle" font-family="Arial, Microsoft YaHei, sans-serif">20</text>
<text x="783.0" y="1202.0" font-size="13" font-weight="400" fill="#64748b" text-anchor="middle" font-family="Arial, Microsoft YaHei, sans-serif">23:58</text>
<rect x="824.0" y="1052.5" width="58.0" height="127.5" rx="6" fill="#b45309" opacity="0.88"/>
<text x="853.0" y="1044.5" font-size="14" font-weight="600" fill="#1f2937" text-anchor="middle" font-family="Arial, Microsoft YaHei, sans-serif">40</text>
<text x="853.0" y="1202.0" font-size="13" font-weight="400" fill="#64748b" text-anchor="middle" font-family="Arial, Microsoft YaHei, sans-serif">23:59</text>
<text x="58.0" y="1277.0" font-size="28" font-weight="700" fill="#1f2937" text-anchor="start" font-family="Arial, Microsoft YaHei, sans-serif">参考区间对比</text>
<text x="58.0" y="1309.0" font-size="17" font-weight="400" fill="#64748b" text-anchor="start" font-family="Arial, Microsoft YaHei, sans-serif">仅作常见参考，需结合日龄、体重、喂养方式、医嘱和宝宝状态。</text>
<rect x="58.0" y="1343.0" width="1130.0" height="42.0" rx="0" fill="#eef2ff" stroke="#cbd5e1"/>
<text x="70.0" y="1370.0" font-size="16" font-weight="700" fill="#1f2937" text-anchor="start" font-family="Arial, Microsoft YaHei, sans-serif">指标</text>
<text x="230.0" y="1370.0" font-size="16" font-weight="700" fill="#1f2937" text-anchor="start" font-family="Arial, Microsoft YaHei, sans-serif">今日记录</text>
<text x="410.0" y="1370.0" font-size="16" font-weight="700" fill="#1f2937" text-anchor="start" font-family="Arial, Microsoft YaHei, sans-serif">常见参考</text>
<text x="720.0" y="1370.0" font-size="16" font-weight="700" fill="#1f2937" text-anchor="start" font-family="Arial, Microsoft YaHei, sans-serif">对比</text>
<text x="860.0" y="1370.0" font-size="16" font-weight="700" fill="#1f2937" text-anchor="start" font-family="Arial, Microsoft YaHei, sans-serif">备注</text>
<rect x="58.0" y="1385.0" width="1130.0" height="58.0" rx="0" fill="#ffffff" stroke="#cbd5e1"/>
<text x="70.0" y="1420.0" font-size="15" font-weight="500" fill="#1f2937" text-anchor="start" font-family="Arial, Microsoft YaHei, sans-serif">喂养频次</text>
<text x="230.0" y="1420.0" font-size="15" font-weight="400" fill="#1f2937" text-anchor="start" font-family="Arial, Microsoft YaHei, sans-serif">13次含跨日</text>
<text x="410.0" y="1420.0" font-size="15" font-weight="400" fill="#1f2937" text-anchor="start" font-family="Arial, Microsoft YaHei, sans-serif">母乳约10-12次/日</text>
<text x="720.0" y="1420.0" font-size="15" font-weight="500" fill="#92400e" text-anchor="start" font-family="Arial, Microsoft YaHei, sans-serif">结合日龄</text>
<text x="860.0" y="1420.0" font-size="15" font-weight="400" fill="#1f2937" text-anchor="start" font-family="Arial, Microsoft YaHei, sans-serif">混合喂养看体重</text>
<rect x="58.0" y="1443.0" width="1130.0" height="58.0" rx="0" fill="#f8fafc" stroke="#cbd5e1"/>
<text x="70.0" y="1478.0" font-size="15" font-weight="500" fill="#1f2937" text-anchor="start" font-family="Arial, Microsoft YaHei, sans-serif">瓶喂单量</text>
<text x="230.0" y="1478.0" font-size="15" font-weight="400" fill="#1f2937" text-anchor="start" font-family="Arial, Microsoft YaHei, sans-serif">20-65 ml</text>
<text x="410.0" y="1478.0" font-size="15" font-weight="400" fill="#1f2937" text-anchor="start" font-family="Arial, Microsoft YaHei, sans-serif">约30-60 ml/次</text>
<text x="720.0" y="1478.0" font-size="15" font-weight="500" fill="#1f2937" text-anchor="start" font-family="Arial, Microsoft YaHei, sans-serif">接近参考</text>
<text x="860.0" y="1478.0" font-size="15" font-weight="400" fill="#1f2937" text-anchor="start" font-family="Arial, Microsoft YaHei, sans-serif">65 ml需观察</text>
<rect x="58.0" y="1501.0" width="1130.0" height="58.0" rx="0" fill="#ffffff" stroke="#cbd5e1"/>
<text x="70.0" y="1536.0" font-size="15" font-weight="500" fill="#1f2937" text-anchor="start" font-family="Arial, Microsoft YaHei, sans-serif">湿尿布</text>
<text x="230.0" y="1536.0" font-size="15" font-weight="400" fill="#1f2937" text-anchor="start" font-family="Arial, Microsoft YaHei, sans-serif">约11次</text>
<text x="410.0" y="1536.0" font-size="15" font-weight="400" fill="#1f2937" text-anchor="start" font-family="Arial, Microsoft YaHei, sans-serif">4-5天后5-6次+</text>
<text x="720.0" y="1536.0" font-size="15" font-weight="500" fill="#1f2937" text-anchor="start" font-family="Arial, Microsoft YaHei, sans-serif">接近参考</text>
<text x="860.0" y="1536.0" font-size="15" font-weight="400" fill="#1f2937" text-anchor="start" font-family="Arial, Microsoft YaHei, sans-serif">补尿量尿色</text>
<rect x="58.0" y="1559.0" width="1130.0" height="58.0" rx="0" fill="#f8fafc" stroke="#cbd5e1"/>
<text x="70.0" y="1594.0" font-size="15" font-weight="500" fill="#1f2937" text-anchor="start" font-family="Arial, Microsoft YaHei, sans-serif">大便</text>
<text x="230.0" y="1594.0" font-size="15" font-weight="400" fill="#1f2937" text-anchor="start" font-family="Arial, Microsoft YaHei, sans-serif">2次量多</text>
<text x="410.0" y="1594.0" font-size="15" font-weight="400" fill="#1f2937" text-anchor="start" font-family="Arial, Microsoft YaHei, sans-serif">新生儿差异大</text>
<text x="720.0" y="1594.0" font-size="15" font-weight="500" fill="#92400e" text-anchor="start" font-family="Arial, Microsoft YaHei, sans-serif">需观察</text>
<text x="860.0" y="1594.0" font-size="15" font-weight="400" fill="#1f2937" text-anchor="start" font-family="Arial, Microsoft YaHei, sans-serif">看连续变化</text>
<rect x="58.0" y="1617.0" width="1130.0" height="58.0" rx="0" fill="#ffffff" stroke="#cbd5e1"/>
<text x="70.0" y="1652.0" font-size="15" font-weight="500" fill="#1f2937" text-anchor="start" font-family="Arial, Microsoft YaHei, sans-serif">睡眠</text>
<text x="230.0" y="1652.0" font-size="15" font-weight="400" fill="#1f2937" text-anchor="start" font-family="Arial, Microsoft YaHei, sans-serif">6次入睡</text>
<text x="410.0" y="1652.0" font-size="15" font-weight="400" fill="#1f2937" text-anchor="start" font-family="Arial, Microsoft YaHei, sans-serif">0-3月14-17小时</text>
<text x="720.0" y="1652.0" font-size="15" font-weight="500" fill="#92400e" text-anchor="start" font-family="Arial, Microsoft YaHei, sans-serif">无法判断</text>
<text x="860.0" y="1652.0" font-size="15" font-weight="400" fill="#1f2937" text-anchor="start" font-family="Arial, Microsoft YaHei, sans-serif">缺醒来时间</text>
<rect x="58.0" y="1675.0" width="1130.0" height="58.0" rx="0" fill="#f8fafc" stroke="#cbd5e1"/>
<text x="70.0" y="1710.0" font-size="15" font-weight="500" fill="#1f2937" text-anchor="start" font-family="Arial, Microsoft YaHei, sans-serif">睡姿</text>
<text x="230.0" y="1710.0" font-size="15" font-weight="400" fill="#1f2937" text-anchor="start" font-family="Arial, Microsoft YaHei, sans-serif">侧卧较多</text>
<text x="410.0" y="1710.0" font-size="15" font-weight="400" fill="#1f2937" text-anchor="start" font-family="Arial, Microsoft YaHei, sans-serif">建议仰卧入睡</text>
<text x="720.0" y="1710.0" font-size="15" font-weight="500" fill="#92400e" text-anchor="start" font-family="Arial, Microsoft YaHei, sans-serif">可优化</text>
<text x="860.0" y="1710.0" font-size="15" font-weight="400" fill="#1f2937" text-anchor="start" font-family="Arial, Microsoft YaHei, sans-serif">睡面坚实平坦</text>
<text x="58.0" y="1810.0" font-size="16" font-weight="400" fill="#64748b" text-anchor="start" font-family="Arial, Microsoft YaHei, sans-serif">说明：图表用于趋势观察，不替代医生诊断；记录缺失会影响对比结论。</text>
</svg>